<svg xmlns="http://www.w3.org/2000/svg" width="1440" height="900"><path d="M795,451L638,282L620,443Z" fill="#4185be" stroke="#4185be" stroke-width="1.51"/><path d="M795,451L804,275L638,282Z" fill="#418ac6" stroke="#418ac6" stroke-width="1.51"/><path d="M462,286L464,446L620,443Z" fill="#4492d0" stroke="#4492d0" stroke-width="1.51"/><path d="M620,443L624,618L795,451Z" fill="#3d82be" stroke="#3d82be" stroke-width="1.51"/><path d="M464,446L624,618L620,443Z" fill="#3f8ac9" stroke="#3f8ac9" stroke-width="1.51"/><path d="M638,282L462,286L620,443Z" fill="#4594d3" stroke="#4594d3" stroke-width="1.51"/><path d="M445,106L462,286L638,282Z" fill="#49a7ec" stroke="#49a7ec" stroke-width="1.51"/><path d="M804,275L806,115L638,282Z" fill="#4498d9" stroke="#4498d9" stroke-width="1.51"/><path d="M795,451L975,448L804,275Z" fill="#3d88c9" stroke="#3d88c9" stroke-width="1.51"/><path d="M804,275L974,116L806,115Z" fill="#388ed5" stroke="#388ed5" stroke-width="1.51"/><path d="M817,629L975,448L795,451Z" fill="#3784ca" stroke="#3784ca" stroke-width="1.51"/><path d="M624,618L817,629L795,451Z" fill="#3883c7" stroke="#3883c7" stroke-width="1.51"/><path d="M806,115L642,95L638,282Z" fill="#3d8ac7" stroke="#3d8ac7" stroke-width="1.51"/><path d="M975,448L991,262L804,275Z" fill="#3b92db" stroke="#3b92db" stroke-width="1.51"/><path d="M464,446L463,623L624,618Z" fill="#3d92d9" stroke="#3d92d9" stroke-width="1.51"/><path d="M624,618L793,789L817,629Z" fill="#308ad9" stroke="#308ad9" stroke-width="1.51"/><path d="M286,437L463,623L464,446Z" fill="#4297db" stroke="#4297db" stroke-width="1.51"/><path d="M975,448L1145,283L991,262Z" fill="#3696e7" stroke="#3696e7" stroke-width="1.51"/><path d="M817,629L977,617L975,448Z" fill="#308ada" stroke="#308ada" stroke-width="1.51"/><path d="M991,262L974,116L804,275Z" fill="#3d9dea" stroke="#3d9dea" stroke-width="1.51"/><path d="M814,-79L645,-74L642,95Z" fill="#256398" stroke="#256398" stroke-width="1.51"/><path d="M642,95L445,106L638,282Z" fill="#3e92d3" stroke="#3e92d3" stroke-width="1.51"/><path d="M462,286L286,437L464,446Z" fill="#469bdc" stroke="#469bdc" stroke-width="1.51"/><path d="M817,629L982,808L977,617Z" fill="#2290ed" stroke="#2290ed" stroke-width="1.51"/><path d="M626,807L793,789L624,618Z" fill="#3188d5" stroke="#3188d5" stroke-width="1.51"/><path d="M288,279L286,437L462,286Z" fill="#47a3e7" stroke="#47a3e7" stroke-width="1.51"/><path d="M445,106L288,279L462,286Z" fill="#4baff8" stroke="#4baff8" stroke-width="1.51"/><path d="M1158,457L1145,283L975,448Z" fill="#328fe0" stroke="#328fe0" stroke-width="1.51"/><path d="M991,262L1150,113L974,116Z" fill="#2e94e7" stroke="#2e94e7" stroke-width="1.51"/><path d="M455,791L626,807L624,618Z" fill="#3290e0" stroke="#3290e0" stroke-width="1.51"/><path d="M455,791L624,618L463,623Z" fill="#3498ed" stroke="#3498ed" stroke-width="1.51"/><path d="M642,95L444,-67L445,106Z" fill="#2e7bb8" stroke="#2e7bb8" stroke-width="1.51"/><path d="M814,-79L642,95L806,115Z" fill="#2a6ca6" stroke="#2a6ca6" stroke-width="1.51"/><path d="M1156,630L1158,457L977,617Z" fill="#248feb" stroke="#248feb" stroke-width="1.51"/><path d="M977,617L1158,457L975,448Z" fill="#2f8bdc" stroke="#2f8bdc" stroke-width="1.51"/><path d="M968,-75L814,-79L806,115Z" fill="#1d66a5" stroke="#1d66a5" stroke-width="1.51"/><path d="M968,-75L806,115L974,116Z" fill="#2374b9" stroke="#2374b9" stroke-width="1.51"/><path d="M278,626L455,791L463,623Z" fill="#35a1fa" stroke="#35a1fa" stroke-width="1.51"/><path d="M109,456L278,626L286,437Z" fill="#3585c7" stroke="#3585c7" stroke-width="1.51"/><path d="M286,437L278,626L463,623Z" fill="#3d9be6" stroke="#3d9be6" stroke-width="1.51"/><path d="M445,106L276,114L288,279Z" fill="#40a0e7" stroke="#40a0e7" stroke-width="1.51"/><path d="M288,279L126,276L286,437Z" fill="#3c92d3" stroke="#3c92d3" stroke-width="1.51"/><path d="M277,-58L276,114L445,106Z" fill="#2f84c5" stroke="#2f84c5" stroke-width="1.51"/><path d="M1145,283L1150,113L991,262Z" fill="#34a2fc" stroke="#34a2fc" stroke-width="1.51"/><path d="M1338,271L1150,113L1145,283Z" fill="#339ff4" stroke="#339ff4" stroke-width="1.51"/><path d="M645,-74L444,-67L642,95Z" fill="#276ba5" stroke="#276ba5" stroke-width="1.51"/><path d="M793,789L982,808L817,629Z" fill="#278ae0" stroke="#278ae0" stroke-width="1.51"/><path d="M821,962L982,808L793,789Z" fill="#2583d4" stroke="#2583d4" stroke-width="1.51"/><path d="M982,808L1156,630L977,617Z" fill="#1194f9" stroke="#1194f9" stroke-width="1.51"/><path d="M1143,-57L968,-75L974,116Z" fill="#0c6cb6" stroke="#0c6cb6" stroke-width="1.51"/><path d="M276,114L126,276L288,279Z" fill="#3e9ee4" stroke="#3e9ee4" stroke-width="1.51"/><path d="M278,626L278,783L455,791Z" fill="#329df3" stroke="#329df3" stroke-width="1.51"/><path d="M625,973L821,962L626,807Z" fill="#2d7dc2" stroke="#2d7dc2" stroke-width="1.51"/><path d="M105,625L278,783L278,626Z" fill="#258ee3" stroke="#258ee3" stroke-width="1.51"/><path d="M625,973L626,807L467,960Z" fill="#2f86cf" stroke="#2f86cf" stroke-width="1.51"/><path d="M626,807L821,962L793,789Z" fill="#2d7fc7" stroke="#2d7fc7" stroke-width="1.51"/><path d="M467,960L626,807L455,791Z" fill="#308eda" stroke="#308eda" stroke-width="1.51"/><path d="M126,276L109,456L286,437Z" fill="#3681be" stroke="#3681be" stroke-width="1.51"/><path d="M1150,113L1143,-57L974,116Z" fill="#147bcb" stroke="#147bcb" stroke-width="1.51"/><path d="M276,114L119,96L126,276Z" fill="#3086c7" stroke="#3086c7" stroke-width="1.51"/><path d="M444,-67L277,-58L445,106Z" fill="#2979b8" stroke="#2979b8" stroke-width="1.51"/><path d="M1158,457L1322,436L1145,283Z" fill="#318bd8" stroke="#318bd8" stroke-width="1.51"/><path d="M1150,113L1339,89L1143,-57Z" fill="#1174c1" stroke="#1174c1" stroke-width="1.51"/><path d="M1342,631L1322,436L1158,457Z" fill="#2a85d4" stroke="#2a85d4" stroke-width="1.51"/><path d="M968,-75L809,-239L814,-79Z" fill="#1d66a5" stroke="#1d66a5" stroke-width="1.51"/><path d="M814,-79L809,-239L645,-74Z" fill="#23639a" stroke="#23639a" stroke-width="1.51"/><path d="M645,-74L449,-246L444,-67Z" fill="#2770ab" stroke="#2770ab" stroke-width="1.51"/><path d="M444,-67L299,-250L277,-58Z" fill="#2779b7" stroke="#2779b7" stroke-width="1.51"/><path d="M982,-250L809,-239L968,-75Z" fill="#1968ab" stroke="#1968ab" stroke-width="1.51"/><path d="M1156,630L1342,631L1158,457Z" fill="#228ae3" stroke="#228ae3" stroke-width="1.51"/><path d="M982,808L1166,806L1156,630Z" fill="#0390f5" stroke="#0390f5" stroke-width="1.51"/><path d="M1156,965L1166,806L982,808Z" fill="#038ae9" stroke="#038ae9" stroke-width="1.51"/><path d="M809,-239L626,-255L645,-74Z" fill="#256399" stroke="#256399" stroke-width="1.51"/><path d="M1322,436L1338,271L1145,283Z" fill="#3190df" stroke="#3190df" stroke-width="1.51"/><path d="M299,984L467,960L455,791Z" fill="#3093e0" stroke="#3093e0" stroke-width="1.51"/><path d="M821,962L972,957L982,808Z" fill="#1f83d5" stroke="#1f83d5" stroke-width="1.51"/><path d="M1156,965L972,957L974,1134Z" fill="#0f87e1" stroke="#0f87e1" stroke-width="1.51"/><path d="M126,276L-52,291L109,456Z" fill="#2d77b2" stroke="#2d77b2" stroke-width="1.51"/><path d="M277,-58L119,96L276,114Z" fill="#2474b1" stroke="#2474b1" stroke-width="1.51"/><path d="M109,456L105,625L278,626Z" fill="#2c80c7" stroke="#2c80c7" stroke-width="1.51"/><path d="M278,783L299,984L455,791Z" fill="#3097e7" stroke="#3097e7" stroke-width="1.51"/><path d="M277,-58L106,-64L119,96Z" fill="#155f99" stroke="#155f99" stroke-width="1.51"/><path d="M626,-255L449,-246L645,-74Z" fill="#276ca5" stroke="#276ca5" stroke-width="1.51"/><path d="M809,-239L982,-250L626,-255Z" fill="#21649f" stroke="#21649f" stroke-width="1.51"/><path d="M1143,-57L982,-250L968,-75Z" fill="#0c6cb6" stroke="#0c6cb6" stroke-width="1.51"/><path d="M1327,806L1342,631L1156,630Z" fill="#038df0" stroke="#038df0" stroke-width="1.51"/><path d="M1322,436L1494,441L1338,271Z" fill="#2f85ce" stroke="#2f85ce" stroke-width="1.51"/><path d="M1143,-57L1149,-249L982,-250Z" fill="#016dba" stroke="#016dba" stroke-width="1.51"/><path d="M1338,271L1339,89L1150,113Z" fill="#278cdd" stroke="#278cdd" stroke-width="1.51"/><path d="M1492,88L1339,89L1338,271Z" fill="#2486d3" stroke="#2486d3" stroke-width="1.51"/><path d="M105,625L106,789L278,783Z" fill="#1d82d3" stroke="#1d82d3" stroke-width="1.51"/><path d="M97,958L299,984L278,783Z" fill="#2282cd" stroke="#2282cd" stroke-width="1.51"/><path d="M454,1145L625,1149L625,973Z" fill="#2f87cf" stroke="#2f87cf" stroke-width="1.51"/><path d="M972,957L1156,965L982,808Z" fill="#0f87e1" stroke="#0f87e1" stroke-width="1.51"/><path d="M1166,806L1327,806L1156,630Z" fill="#038ced" stroke="#038ced" stroke-width="1.51"/><path d="M974,1134L972,957L821,962Z" fill="#1f82d5" stroke="#1f82d5" stroke-width="1.51"/><path d="M813,1159L821,962L625,973Z" fill="#2c7cc3" stroke="#2c7cc3" stroke-width="1.51"/><path d="M106,-236L106,-64L277,-58Z" fill="#155f98" stroke="#155f98" stroke-width="1.51"/><path d="M-51,106L-52,291L126,276Z" fill="#2a7cbc" stroke="#2a7cbc" stroke-width="1.51"/><path d="M109,456L-55,610L105,625Z" fill="#216fb2" stroke="#216fb2" stroke-width="1.51"/><path d="M449,-246L299,-250L444,-67Z" fill="#2979b7" stroke="#2979b7" stroke-width="1.51"/><path d="M626,-255L299,-250L449,-246Z" fill="#2874b0" stroke="#2874b0" stroke-width="1.51"/><path d="M1330,962L1327,806L1166,806Z" fill="#0283dd" stroke="#0283dd" stroke-width="1.51"/><path d="M982,-250L1500,-257L626,-255Z" fill="#0b6cb7" stroke="#0b6cb7" stroke-width="1.51"/><path d="M1333,-83L1149,-249L1143,-57Z" fill="#0169b3" stroke="#0169b3" stroke-width="1.51"/><path d="M-51,106L126,276L119,96Z" fill="#2575b3" stroke="#2575b3" stroke-width="1.51"/><path d="M105,625L-55,610L106,789Z" fill="#0d75c5" stroke="#0d75c5" stroke-width="1.51"/><path d="M1339,89L1333,-83L1143,-57Z" fill="#0167af" stroke="#0167af" stroke-width="1.51"/><path d="M-52,291L-63,438L109,456Z" fill="#26689f" stroke="#26689f" stroke-width="1.51"/><path d="M454,1145L625,973L467,960Z" fill="#2f8bd5" stroke="#2f8bd5" stroke-width="1.51"/><path d="M1515,633L1494,441L1342,631Z" fill="#2182d3" stroke="#2182d3" stroke-width="1.51"/><path d="M1342,631L1494,441L1322,436Z" fill="#2980cc" stroke="#2980cc" stroke-width="1.51"/><path d="M1339,89L1492,-63L1333,-83Z" fill="#0163a7" stroke="#0163a7" stroke-width="1.51"/><path d="M625,1149L813,1159L625,973Z" fill="#2d7ec3" stroke="#2d7ec3" stroke-width="1.51"/><path d="M1494,441L1505,283L1338,271Z" fill="#2f89d3" stroke="#2f89d3" stroke-width="1.51"/><path d="M-63,438L-55,610L109,456Z" fill="#21649e" stroke="#21649e" stroke-width="1.51"/><path d="M813,1159L974,1134L821,962Z" fill="#2481d0" stroke="#2481d0" stroke-width="1.51"/><path d="M-243,274L-227,463L-63,438Z" fill="#26689f" stroke="#26689f" stroke-width="1.51"/><path d="M106,-64L-51,106L119,96Z" fill="#115a92" stroke="#115a92" stroke-width="1.51"/><path d="M625,1149L291,1149L813,1159Z" fill="#2f86cf" stroke="#2f86cf" stroke-width="1.51"/><path d="M299,984L454,1145L467,960Z" fill="#3093e0" stroke="#3093e0" stroke-width="1.51"/><path d="M291,1149L454,1145L299,984Z" fill="#3095e3" stroke="#3095e3" stroke-width="1.51"/><path d="M1505,283L1492,88L1338,271Z" fill="#2f94e2" stroke="#2f94e2" stroke-width="1.51"/><path d="M1514,786L1515,633L1342,631Z" fill="#0388e5" stroke="#0388e5" stroke-width="1.51"/><path d="M1494,441L1676,441L1505,283Z" fill="#2e83ca" stroke="#2e83ca" stroke-width="1.51"/><path d="M1514,786L1342,631L1327,806Z" fill="#0286e2" stroke="#0286e2" stroke-width="1.51"/><path d="M1330,962L1166,806L1156,965Z" fill="#0283dd" stroke="#0283dd" stroke-width="1.51"/><path d="M106,789L97,958L278,783Z" fill="#1b7cc6" stroke="#1b7cc6" stroke-width="1.51"/><path d="M-56,957L97,958L106,789Z" fill="#0a68ad" stroke="#0a68ad" stroke-width="1.51"/><path d="M1316,1154L1330,962L1156,965Z" fill="#0281d9" stroke="#0281d9" stroke-width="1.51"/><path d="M106,-64L-76,-76L-51,106Z" fill="#00487c" stroke="#00487c" stroke-width="1.51"/><path d="M299,-250L106,-236L277,-58Z" fill="#1c68a3" stroke="#1c68a3" stroke-width="1.51"/><path d="M1500,-257L1316,-246L1333,-83Z" fill="#0163a8" stroke="#0163a8" stroke-width="1.51"/><path d="M1333,-83L1316,-246L1149,-249Z" fill="#0167af" stroke="#0167af" stroke-width="1.51"/><path d="M102,1140L291,1149L299,984Z" fill="#2383ce" stroke="#2383ce" stroke-width="1.51"/><path d="M454,1145L291,1149L625,1149Z" fill="#308fdb" stroke="#308fdb" stroke-width="1.51"/><path d="M-55,610L-77,786L106,789Z" fill="#016bb6" stroke="#016bb6" stroke-width="1.51"/><path d="M-245,627L-77,786L-55,610Z" fill="#026ebb" stroke="#026ebb" stroke-width="1.51"/><path d="M-227,463L-55,610L-63,438Z" fill="#21649f" stroke="#21649f" stroke-width="1.51"/><path d="M974,1134L1142,1153L1156,965Z" fill="#0388e6" stroke="#0388e6" stroke-width="1.51"/><path d="M813,1159L1142,1153L974,1134Z" fill="#1984db" stroke="#1984db" stroke-width="1.51"/><path d="M1492,88L1492,-63L1339,89Z" fill="#0c6aaf" stroke="#0c6aaf" stroke-width="1.51"/><path d="M1671,105L1492,-63L1492,88Z" fill="#0d6bb1" stroke="#0d6bb1" stroke-width="1.51"/><path d="M1497,959L1514,786L1327,806Z" fill="#027ed3" stroke="#027ed3" stroke-width="1.51"/><path d="M1497,959L1327,806L1330,962Z" fill="#027dd1" stroke="#027dd1" stroke-width="1.51"/><path d="M-243,274L-63,438L-52,291Z" fill="#276fa8" stroke="#276fa8" stroke-width="1.51"/><path d="M-54,-235L-76,-76L106,-64Z" fill="#00487c" stroke="#00487c" stroke-width="1.51"/><path d="M-243,274L-52,291L-51,106Z" fill="#297bba" stroke="#297bba" stroke-width="1.51"/><path d="M-245,94L-243,274L-51,106Z" fill="#1e6ba7" stroke="#1e6ba7" stroke-width="1.51"/><path d="M97,958L102,1140L299,984Z" fill="#1b79c1" stroke="#1b79c1" stroke-width="1.51"/><path d="M-77,786L-56,957L106,789Z" fill="#0164aa" stroke="#0164aa" stroke-width="1.51"/><path d="M-243,964L-56,957L-77,786Z" fill="#0161a4" stroke="#0161a4" stroke-width="1.51"/><path d="M1505,283L1671,105L1492,88Z" fill="#2586d2" stroke="#2586d2" stroke-width="1.51"/><path d="M1515,633L1676,441L1494,441Z" fill="#297ec9" stroke="#297ec9" stroke-width="1.51"/><path d="M1673,632L1676,441L1515,633Z" fill="#2182d4" stroke="#2182d4" stroke-width="1.51"/><path d="M1676,441L1675,279L1505,283Z" fill="#2f89d3" stroke="#2f89d3" stroke-width="1.51"/><path d="M106,-236L-54,-235L106,-64Z" fill="#074f85" stroke="#074f85" stroke-width="1.51"/><path d="M-76,-76L-245,94L-51,106Z" fill="#085187" stroke="#085187" stroke-width="1.51"/><path d="M299,-250L-54,-235L106,-236Z" fill="#0f5890" stroke="#0f5890" stroke-width="1.51"/><path d="M-64,1131L102,1140L97,958Z" fill="#0967ac" stroke="#0967ac" stroke-width="1.51"/><path d="M1514,786L1673,632L1515,633Z" fill="#0388e5" stroke="#0388e5" stroke-width="1.51"/><path d="M1502,1130L1497,959L1330,962Z" fill="#027bce" stroke="#027bce" stroke-width="1.51"/><path d="M1142,1153L1316,1154L1156,965Z" fill="#0284de" stroke="#0284de" stroke-width="1.51"/><path d="M813,1159L1316,1154L1142,1153Z" fill="#0388e6" stroke="#0388e6" stroke-width="1.51"/><path d="M-227,463L-245,627L-55,610Z" fill="#1a68a9" stroke="#1a68a9" stroke-width="1.51"/><path d="M-243,274L-245,627L-227,463Z" fill="#256297" stroke="#256297" stroke-width="1.51"/><path d="M-243,274L-245,94L-245,627Z" fill="#276fa9" stroke="#276fa9" stroke-width="1.51"/><path d="M-229,-69L-245,94L-76,-76Z" fill="#00487c" stroke="#00487c" stroke-width="1.51"/><path d="M1492,-63L1500,-257L1333,-83Z" fill="#0161a4" stroke="#0161a4" stroke-width="1.51"/><path d="M1675,279L1671,105L1505,283Z" fill="#3096e4" stroke="#3096e4" stroke-width="1.51"/><path d="M1668,810L1673,632L1514,786Z" fill="#0284df" stroke="#0284df" stroke-width="1.51"/><path d="M1669,-253L1500,-257L1492,-63Z" fill="#0161a4" stroke="#0161a4" stroke-width="1.51"/><path d="M1316,-246L1500,-257L1149,-249Z" fill="#0165ac" stroke="#0165ac" stroke-width="1.51"/><path d="M1149,-249L1500,-257L982,-250Z" fill="#0169b3" stroke="#0169b3" stroke-width="1.51"/><path d="M-245,627L-227,784L-77,786Z" fill="#016ab5" stroke="#016ab5" stroke-width="1.51"/><path d="M-56,957L-64,1131L97,958Z" fill="#0161a4" stroke="#0161a4" stroke-width="1.51"/><path d="M-233,-233L-229,-69L-76,-76Z" fill="#00487c" stroke="#00487c" stroke-width="1.51"/><path d="M1497,959L1668,810L1514,786Z" fill="#027ed3" stroke="#027ed3" stroke-width="1.51"/><path d="M1667,982L1668,810L1497,959Z" fill="#027bce" stroke="#027bce" stroke-width="1.51"/><path d="M1671,105L1689,-74L1492,-63Z" fill="#0161a4" stroke="#0161a4" stroke-width="1.51"/><path d="M1863,110L1689,-74L1671,105Z" fill="#0e6cb2" stroke="#0e6cb2" stroke-width="1.51"/><path d="M1863,110L1671,105L1675,279Z" fill="#2788d4" stroke="#2788d4" stroke-width="1.51"/><path d="M1852,452L1675,279L1676,441Z" fill="#2e82ca" stroke="#2e82ca" stroke-width="1.51"/><path d="M-243,964L-64,1131L-56,957Z" fill="#0161a4" stroke="#0161a4" stroke-width="1.51"/><path d="M1316,1154L1502,1130L1330,962Z" fill="#027dd2" stroke="#027dd2" stroke-width="1.51"/><path d="M-54,-235L-233,-233L-76,-76Z" fill="#00487c" stroke="#00487c" stroke-width="1.51"/><path d="M-229,-69L-233,-233L-245,94Z" fill="#00487c" stroke="#00487c" stroke-width="1.51"/><path d="M299,-250L-233,-233L-54,-235Z" fill="#00487c" stroke="#00487c" stroke-width="1.51"/><path d="M-245,627L-243,964L-227,784Z" fill="#0167af" stroke="#0167af" stroke-width="1.51"/><path d="M-227,784L-243,964L-77,786Z" fill="#0164aa" stroke="#0164aa" stroke-width="1.51"/><path d="M1502,1130L1667,982L1497,959Z" fill="#027bce" stroke="#027bce" stroke-width="1.51"/><path d="M1839,637L1852,452L1673,632Z" fill="#2082d4" stroke="#2082d4" stroke-width="1.51"/><path d="M1673,632L1852,452L1676,441Z" fill="#287fca" stroke="#287fca" stroke-width="1.51"/><path d="M1689,-74L1669,-253L1492,-63Z" fill="#0161a4" stroke="#0161a4" stroke-width="1.51"/><path d="M1839,637L1673,632L1836,788Z" fill="#0388e5" stroke="#0388e5" stroke-width="1.51"/><path d="M1689,-74L1848,-231L1669,-253Z" fill="#0161a4" stroke="#0161a4" stroke-width="1.51"/><path d="M1852,452L1861,273L1675,279Z" fill="#2f89d3" stroke="#2f89d3" stroke-width="1.51"/><path d="M1836,788L1673,632L1668,810Z" fill="#0284df" stroke="#0284df" stroke-width="1.51"/><path d="M1861,273L1863,110L1675,279Z" fill="#3096e4" stroke="#3096e4" stroke-width="1.51"/><path d="M1837,971L1836,788L1668,810Z" fill="#027dd2" stroke="#027dd2" stroke-width="1.51"/><path d="M1839,637L1836,788L1852,452Z" fill="#1685dd" stroke="#1685dd" stroke-width="1.51"/><path d="M1852,452L1843,1137L1861,273Z" fill="#1685dd" stroke="#1685dd" stroke-width="1.51"/><path d="M-243,964L-226,1143L-64,1131Z" fill="#0161a4" stroke="#0161a4" stroke-width="1.51"/><path d="M-64,1131L-226,1143L102,1140Z" fill="#0161a4" stroke="#0161a4" stroke-width="1.51"/><path d="M102,1140L-226,1143L291,1149Z" fill="#0a69ae" stroke="#0a69ae" stroke-width="1.51"/><path d="M291,1149L-226,1143L813,1159Z" fill="#298cd9" stroke="#298cd9" stroke-width="1.51"/><path d="M1863,110L1858,-68L1689,-74Z" fill="#0161a4" stroke="#0161a4" stroke-width="1.51"/><path d="M1667,982L1837,971L1668,810Z" fill="#027bce" stroke="#027bce" stroke-width="1.51"/><path d="M1502,1130L1665,1156L1667,982Z" fill="#027bce" stroke="#027bce" stroke-width="1.51"/><path d="M1316,1154L1665,1156L1502,1130Z" fill="#027bce" stroke="#027bce" stroke-width="1.51"/><path d="M813,1159L1665,1156L1316,1154Z" fill="#0281da" stroke="#0281da" stroke-width="1.51"/><path d="M1843,1137L1837,971L1667,982Z" fill="#027bce" stroke="#027bce" stroke-width="1.51"/><path d="M1836,788L1837,971L1852,452Z" fill="#0384df" stroke="#0384df" stroke-width="1.51"/><path d="M1858,-68L1848,-231L1689,-74Z" fill="#0161a4" stroke="#0161a4" stroke-width="1.51"/><path d="M1665,1156L1843,1137L1667,982Z" fill="#027bce" stroke="#027bce" stroke-width="1.51"/><path d="M1837,971L1843,1137L1852,452Z" fill="#027ed3" stroke="#027ed3" stroke-width="1.51"/></svg>